# xmcd
#
# Track frame offsets:
#	150
#	17496
#	36340
#	52652
#	68420
#	81722
#	92505
#	109503
#	126732
#	144791
#	162660
#	176787
#	193209
#	210819
#	224181
#
# Disc length: 3213 seconds
#
# Revision: 0
# Processed by: cddbd v1.5.2PL0 Copyright (c) Steve Scherf et al.
# Submitted via: EasyCDDAExtractor 15.2.5.1
#
DISCID=d70c8b0f
DTITLE=Ricky Skaggs - Ricky Skaggs - Heartbroke - CD Two
DYEAR=2006
DGENRE=Country
TTITLE0=Country Boy
TTITLE1=San Antonio Rose
TTITLE2=Your Old Love Letters
TTITLE3=Simple Life
TTITLE4=You Can't Take It With You When You Go
TTITLE5=Lonesome For You
TTITLE6=Can't You Hear Me Callin'
TTITLE7=Artificial Heart
TTITLE8=I Won't Let You Down
TTITLE9=The Fields Of Home
TTITLE10=Patiently Waiting
TTITLE11=Home Is Wherever You Are
TTITLE12=Rendezvous
TTITLE13=Lord She Sure is Good At Lovin' Me
TTITLE14=Woman You Won't Break Mine
EXTD=
EXTT0=
EXTT1=
EXTT2=
EXTT3=
EXTT4=
EXTT5=
EXTT6=
EXTT7=
EXTT8=
EXTT9=
EXTT10=
EXTT11=
EXTT12=
EXTT13=
EXTT14=
PLAYORDER=
